<svg xmlns="http://www.w3.org/2000/svg" xmlns:xlink="http://www.w3.org/1999/xlink" id="processonSvg1000" viewBox="47.0 89.0 956.0 560.75" width="956.0" height="560.75"><defs id="ProcessOnDefs1001"><marker id="ProcessOnMarker1011" markerUnits="userSpaceOnUse" orient="auto" markerWidth="16.23606797749979" markerHeight="10.550836550532098" viewBox="-1.0 -1.3763819204711736 16.23606797749979 10.550836550532098" refX="-1.0" refY="3.8990363547948754"><path id="ProcessOnPath1012" d="M12.0 3.8990363547948754L0.0 7.798072709589751V0.0Z" stroke="#323232" stroke-width="2.0" fill="#323232" transform="matrix(1.0,0.0,0.0,1.0,0.0,0.0)"/></marker><marker id="ProcessOnMarker1019" markerUnits="userSpaceOnUse" orient="auto" markerWidth="16.23606797749979" markerHeight="10.550836550532098" viewBox="-1.0 -1.3763819204711736 16.23606797749979 10.550836550532098" refX="-1.0" refY="3.8990363547948754"><path id="ProcessOnPath1020" d="M12.0 3.8990363547948754L0.0 7.798072709589751V0.0Z" stroke="#323232" stroke-width="2.0" fill="#323232" transform="matrix(1.0,0.0,0.0,1.0,0.0,0.0)"/></marker><marker id="ProcessOnMarker1027" markerUnits="userSpaceOnUse" orient="auto" markerWidth="16.23606797749979" markerHeight="10.550836550532098" viewBox="-1.0 -1.3763819204711736 16.23606797749979 10.550836550532098" refX="-1.0" refY="3.8990363547948754"><path id="ProcessOnPath1028" d="M12.0 3.8990363547948754L0.0 7.798072709589751V0.0Z" stroke="#323232" stroke-width="2.0" fill="#323232" transform="matrix(1.0,0.0,0.0,1.0,0.0,0.0)"/></marker><marker id="ProcessOnMarker1039" markerUnits="userSpaceOnUse" orient="auto" markerWidth="16.23606797749979" markerHeight="10.550836550532098" viewBox="-1.0 -1.3763819204711736 16.23606797749979 10.550836550532098" refX="-1.0" refY="3.8990363547948754"><path id="ProcessOnPath1040" d="M12.0 3.8990363547948754L0.0 7.798072709589751V0.0Z" stroke="#323232" stroke-width="2.0" fill="#323232" transform="matrix(1.0,0.0,0.0,1.0,0.0,0.0)"/></marker><marker id="ProcessOnMarker1047" markerUnits="userSpaceOnUse" orient="auto" markerWidth="16.23606797749979" markerHeight="10.550836550532098" viewBox="-1.0 -1.3763819204711736 16.23606797749979 10.550836550532098" refX="-1.0" refY="3.8990363547948754"><path id="ProcessOnPath1048" d="M12.0 3.8990363547948754L0.0 7.798072709589751V0.0Z" stroke="#323232" stroke-width="2.0" fill="#323232" transform="matrix(1.0,0.0,0.0,1.0,0.0,0.0)"/></marker><marker id="ProcessOnMarker1071" markerUnits="userSpaceOnUse" orient="auto" markerWidth="16.23606797749979" markerHeight="10.550836550532098" viewBox="-1.0 -1.3763819204711736 16.23606797749979 10.550836550532098" refX="-1.0" refY="3.8990363547948754"><path id="ProcessOnPath1072" d="M12.0 3.8990363547948754L0.0 7.798072709589751V0.0Z" stroke="#323232" stroke-width="2.0" fill="#323232" transform="matrix(1.0,0.0,0.0,1.0,0.0,0.0)"/></marker><marker id="ProcessOnMarker1075" markerUnits="userSpaceOnUse" orient="auto" markerWidth="16.23606797749979" markerHeight="10.550836550532098" viewBox="-1.0 -1.3763819204711736 16.23606797749979 10.550836550532098" refX="-1.0" refY="3.8990363547948754"><path id="ProcessOnPath1076" d="M12.0 3.8990363547948754L0.0 7.798072709589751V0.0Z" stroke="#323232" stroke-width="2.0" fill="#323232" transform="matrix(1.0,0.0,0.0,1.0,0.0,0.0)"/></marker><marker id="ProcessOnMarker1079" markerUnits="userSpaceOnUse" orient="auto" markerWidth="16.23606797749979" markerHeight="10.550836550532098" viewBox="-1.0 -1.3763819204711736 16.23606797749979 10.550836550532098" refX="-1.0" refY="3.8990363547948754"><path id="ProcessOnPath1080" d="M12.0 3.8990363547948754L0.0 7.798072709589751V0.0Z" stroke="#323232" stroke-width="2.0" fill="#323232" transform="matrix(1.0,0.0,0.0,1.0,0.0,0.0)"/></marker><marker id="ProcessOnMarker1083" markerUnits="userSpaceOnUse" orient="auto" markerWidth="16.23606797749979" markerHeight="10.550836550532098" viewBox="-1.0 -1.3763819204711736 16.23606797749979 10.550836550532098" refX="-1.0" refY="3.8990363547948754"><path id="ProcessOnPath1084" d="M12.0 3.8990363547948754L0.0 7.798072709589751V0.0Z" stroke="#323232" stroke-width="2.0" fill="#323232" transform="matrix(1.0,0.0,0.0,1.0,0.0,0.0)"/></marker><marker id="ProcessOnMarker1123" markerUnits="userSpaceOnUse" orient="auto" markerWidth="16.23606797749979" markerHeight="10.550836550532098" viewBox="-1.0 -1.3763819204711736 16.23606797749979 10.550836550532098" refX="-1.0" refY="3.8990363547948754"><path id="ProcessOnPath1124" d="M12.0 3.8990363547948754L0.0 7.798072709589751V0.0Z" stroke="#323232" stroke-width="2.0" fill="#323232" transform="matrix(1.0,0.0,0.0,1.0,0.0,0.0)"/></marker><marker id="ProcessOnMarker1139" markerUnits="userSpaceOnUse" orient="auto" markerWidth="16.23606797749979" markerHeight="10.550836550532098" viewBox="-1.0 -1.3763819204711736 16.23606797749979 10.550836550532098" refX="-1.0" refY="3.8990363547948754"><path id="ProcessOnPath1140" d="M12.0 3.8990363547948754L0.0 7.798072709589751V0.0Z" stroke="#323232" stroke-width="2.0" fill="#323232" transform="matrix(1.0,0.0,0.0,1.0,0.0,0.0)"/></marker><marker id="ProcessOnMarker1153" markerUnits="userSpaceOnUse" orient="auto" markerWidth="16.23606797749979" markerHeight="10.550836550532098" viewBox="-1.0 -1.3763819204711736 16.23606797749979 10.550836550532098" refX="-1.0" refY="3.8990363547948754"><path id="ProcessOnPath1154" d="M12.0 3.8990363547948754L0.0 7.798072709589751V0.0Z" stroke="#323232" stroke-width="2.0" fill="#323232" transform="matrix(1.0,0.0,0.0,1.0,0.0,0.0)"/></marker><marker id="ProcessOnMarker1157" markerUnits="userSpaceOnUse" orient="auto" markerWidth="16.23606797749979" markerHeight="10.550836550532098" viewBox="-1.0 -1.3763819204711736 16.23606797749979 10.550836550532098" refX="-1.0" refY="3.8990363547948754"><path id="ProcessOnPath1158" d="M12.0 3.8990363547948754L0.0 7.798072709589751V0.0Z" stroke="#323232" stroke-width="2.0" fill="#323232" transform="matrix(1.0,0.0,0.0,1.0,0.0,0.0)"/></marker><marker id="ProcessOnMarker1165" markerUnits="userSpaceOnUse" orient="auto" markerWidth="16.23606797749979" markerHeight="10.550836550532098" viewBox="-1.0 -1.3763819204711736 16.23606797749979 10.550836550532098" refX="-1.0" refY="3.8990363547948754"><path id="ProcessOnPath1166" d="M12.0 3.8990363547948754L0.0 7.798072709589751V0.0Z" stroke="#323232" stroke-width="2.0" fill="#323232" transform="matrix(1.0,0.0,0.0,1.0,0.0,0.0)"/></marker><marker id="ProcessOnMarker1181" markerUnits="userSpaceOnUse" orient="auto" markerWidth="16.23606797749979" markerHeight="10.550836550532098" viewBox="-1.0 -1.3763819204711736 16.23606797749979 10.550836550532098" refX="-1.0" refY="3.8990363547948754"><path id="ProcessOnPath1182" d="M12.0 3.8990363547948754L0.0 7.798072709589751V0.0Z" stroke="#323232" stroke-width="2.0" fill="#323232" transform="matrix(1.0,0.0,0.0,1.0,0.0,0.0)"/></marker><marker id="ProcessOnMarker1185" markerUnits="userSpaceOnUse" orient="auto" markerWidth="16.23606797749979" markerHeight="10.550836550532098" viewBox="-1.0 -1.3763819204711736 16.23606797749979 10.550836550532098" refX="-1.0" refY="3.8990363547948754"><path id="ProcessOnPath1186" d="M12.0 3.8990363547948754L0.0 7.798072709589751V0.0Z" stroke="#323232" stroke-width="2.0" fill="#323232" transform="matrix(1.0,0.0,0.0,1.0,0.0,0.0)"/></marker><marker id="ProcessOnMarker1193" markerUnits="userSpaceOnUse" orient="auto" markerWidth="16.23606797749979" markerHeight="10.550836550532098" viewBox="-1.0 -1.3763819204711736 16.23606797749979 10.550836550532098" refX="-1.0" refY="3.8990363547948754"><path id="ProcessOnPath1194" d="M12.0 3.8990363547948754L0.0 7.798072709589751V0.0Z" stroke="#323232" stroke-width="2.0" fill="#323232" transform="matrix(1.0,0.0,0.0,1.0,0.0,0.0)"/></marker></defs><g id="ProcessOnG1002"><path id="ProcessOnPath1003" d="M47.0 89.0H1003.0V649.75H47.0V89.0Z" fill="none"/><g id="ProcessOnG1004"><g id="ProcessOnG1005" transform="matrix(1.0,0.0,0.0,1.0,236.0,243.0)" opacity="1.0"><path id="ProcessOnPath1006" d="M0.0 0.0L89.0 0.0L89.0 50.0L0.0 50.0Z" stroke="#323232" stroke-width="2.0" stroke-dasharray="none" opacity="1.0" fill="#ffffff"/><g id="ProcessOnG1007" transform="matrix(1.0,0.0,0.0,1.0,10.0,16.875)"><text id="ProcessOnText1008" fill="#000000" font-size="13" x="33.5" y="13.325" font-family="微软雅黑" font-weight="normal" font-style="normal" text-decoration="none" family="微软雅黑" text-anchor="middle" size="13">cell</text></g></g><g id="ProcessOnG1009"><path id="ProcessOnPath1010" d="M236.0 268.0L186.5 268.0L186.5 173.5L152.2360679774998 173.5" stroke="#323232" stroke-width="2.0" stroke-dasharray="none" fill="none" marker-end="url(#ProcessOnMarker1011)"/></g><g id="ProcessOnG1013" transform="matrix(1.0,0.0,0.0,1.0,67.0,156.0)" opacity="1.0"><path id="ProcessOnPath1014" d="M0.0 17.5C0.0 -5.833333333333333 70.0 -5.833333333333333 70.0 17.5C70.0 40.833333333333336 0.0 40.833333333333336 0.0 17.5Z" stroke="#323232" stroke-width="2.0" stroke-dasharray="none" opacity="1.0" fill="#ffffff"/><g id="ProcessOnG1015" transform="matrix(1.0,0.0,0.0,1.0,10.0,9.375)"><text id="ProcessOnText1016" fill="#000000" font-size="13" x="24.0" y="13.325" font-family="微软雅黑" font-weight="normal" font-style="normal" text-decoration="none" family="微软雅黑" text-anchor="middle" size="13">note</text></g></g><g id="ProcessOnG1017"><path id="ProcessOnPath1018" d="M236.0 268.0L186.5 268.0L186.5 219.0L152.2360679774998 219.0" stroke="#323232" stroke-width="2.0" stroke-dasharray="none" fill="none" marker-end="url(#ProcessOnMarker1019)"/></g><g id="ProcessOnG1021" transform="matrix(1.0,0.0,0.0,1.0,67.0,202.0)" opacity="1.0"><path id="ProcessOnPath1022" d="M0.0 17.0C0.0 -5.666666666666667 70.0 -5.666666666666667 70.0 17.0C70.0 39.666666666666664 0.0 39.666666666666664 0.0 17.0Z" stroke="#323232" stroke-width="2.0" stroke-dasharray="none" opacity="1.0" fill="#ffffff"/><g id="ProcessOnG1023" transform="matrix(1.0,0.0,0.0,1.0,10.0,8.875)"><text id="ProcessOnText1024" fill="#000000" font-size="13" x="24.0" y="13.325" font-family="微软雅黑" font-weight="normal" font-style="normal" text-decoration="none" family="微软雅黑" text-anchor="middle" size="13">en</text></g></g><g id="ProcessOnG1025"><path id="ProcessOnPath1026" d="M236.0 268.0L186.5 268.0L186.5 267.0L152.2360679774998 267.0" stroke="#323232" stroke-width="2.0" stroke-dasharray="none" fill="none" marker-end="url(#ProcessOnMarker1027)"/></g><g id="ProcessOnG1029" transform="matrix(1.0,0.0,0.0,1.0,67.0,250.0)" opacity="1.0"><path id="ProcessOnPath1030" d="M0.0 17.0C0.0 -5.666666666666667 70.0 -5.666666666666667 70.0 17.0C70.0 39.666666666666664 0.0 39.666666666666664 0.0 17.0Z" stroke="#323232" stroke-width="2.0" stroke-dasharray="none" opacity="1.0" fill="#ffffff"/><g id="ProcessOnG1031" transform="matrix(1.0,0.0,0.0,1.0,10.0,8.875)"><text id="ProcessOnText1032" fill="#000000" font-size="13" x="24.0" y="13.325" font-family="微软雅黑" font-weight="normal" font-style="normal" text-decoration="none" family="微软雅黑" text-anchor="middle" size="13">es</text></g></g><g id="ProcessOnG1033" transform="matrix(1.0,0.0,0.0,1.0,67.0,298.0)" opacity="1.0"><path id="ProcessOnPath1034" d="M0.0 17.5C0.0 -5.833333333333333 70.0 -5.833333333333333 70.0 17.5C70.0 40.833333333333336 0.0 40.833333333333336 0.0 17.5Z" stroke="#323232" stroke-width="2.0" stroke-dasharray="none" opacity="1.0" fill="#ffffff"/><g id="ProcessOnG1035" transform="matrix(1.0,0.0,0.0,1.0,10.0,9.375)"><text id="ProcessOnText1036" fill="#000000" font-size="13" x="24.0" y="13.325" font-family="微软雅黑" font-weight="normal" font-style="normal" text-decoration="none" family="微软雅黑" text-anchor="middle" size="13">...</text></g></g><g id="ProcessOnG1037"><path id="ProcessOnPath1038" d="M236.0 268.0L186.5 268.0L186.5 315.5L152.2360679774998 315.5" stroke="#323232" stroke-width="2.0" stroke-dasharray="none" fill="none" marker-end="url(#ProcessOnMarker1039)"/></g><g id="ProcessOnG1041" transform="matrix(1.0,0.0,0.0,1.0,67.0,109.0)" opacity="1.0"><path id="ProcessOnPath1042" d="M0.0 17.5C0.0 -5.833333333333333 70.0 -5.833333333333333 70.0 17.5C70.0 40.833333333333336 0.0 40.833333333333336 0.0 17.5Z" stroke="#323232" stroke-width="2.0" stroke-dasharray="none" opacity="1.0" fill="#ffffff"/><g id="ProcessOnG1043" transform="matrix(1.0,0.0,0.0,1.0,10.0,9.375)"><text id="ProcessOnText1044" fill="#cc0066" font-size="13" x="24.0" y="13.325" font-family="微软雅黑" font-weight="normal" font-style="normal" text-decoration="underline" family="微软雅黑" text-anchor="middle" size="13">cell-id</text></g></g><g id="ProcessOnG1045"><path id="ProcessOnPath1046" d="M236.0 268.0L186.5 268.0L186.5 126.5L152.2360679774998 126.5" stroke="#323232" stroke-width="2.0" stroke-dasharray="none" fill="none" marker-end="url(#ProcessOnMarker1047)"/></g><g id="ProcessOnG1049" transform="matrix(1.0,0.0,0.0,1.0,708.0,239.25)" opacity="1.0"><path id="ProcessOnPath1050" d="M0.0 0.0L78.0 0.0L78.0 51.0L0.0 51.0Z" stroke="#323232" stroke-width="2.0" stroke-dasharray="none" opacity="1.0" fill="#ffffff"/><g id="ProcessOnG1051" transform="matrix(1.0,0.0,0.0,1.0,10.0,17.375)"><text id="ProcessOnText1052" fill="#000000" font-size="13" x="28.0" y="13.325" font-family="微软雅黑" font-weight="normal" font-style="normal" text-decoration="none" family="微软雅黑" text-anchor="middle" size="13">user</text></g></g><g id="ProcessOnG1053" transform="matrix(1.0,0.0,0.0,1.0,853.0,167.25)" opacity="1.0"><path id="ProcessOnPath1054" d="M0.0 17.5C0.0 -5.833333333333333 70.0 -5.833333333333333 70.0 17.5C70.0 40.833333333333336 0.0 40.833333333333336 0.0 17.5Z" stroke="#323232" stroke-width="2.0" stroke-dasharray="none" opacity="1.0" fill="#ffffff"/><g id="ProcessOnG1055" transform="matrix(1.0,0.0,0.0,1.0,10.0,9.375)"><text id="ProcessOnText1056" fill="#cc0066" font-size="13" x="24.0" y="13.325" font-family="微软雅黑" font-weight="normal" font-style="normal" text-decoration="underline" family="微软雅黑" text-anchor="middle" size="13">user-id</text></g></g><g id="ProcessOnG1057" transform="matrix(1.0,0.0,0.0,1.0,853.0,220.25)" opacity="1.0"><path id="ProcessOnPath1058" d="M0.0 17.5C0.0 -5.833333333333333 70.0 -5.833333333333333 70.0 17.5C70.0 40.833333333333336 0.0 40.833333333333336 0.0 17.5Z" stroke="#323232" stroke-width="2.0" stroke-dasharray="none" opacity="1.0" fill="#ffffff"/><g id="ProcessOnG1059" transform="matrix(1.0,0.0,0.0,1.0,10.0,9.375)"><text id="ProcessOnText1060" fill="#000000" font-size="13" x="24.0" y="13.325" font-family="微软雅黑" font-weight="normal" font-style="normal" text-decoration="none" family="微软雅黑" text-anchor="middle" size="13">type</text></g></g><g id="ProcessOnG1061" transform="matrix(1.0,0.0,0.0,1.0,853.0,333.75)" opacity="1.0"><path id="ProcessOnPath1062" d="M0.0 17.5C0.0 -5.833333333333333 70.0 -5.833333333333333 70.0 17.5C70.0 40.833333333333336 0.0 40.833333333333336 0.0 17.5Z" stroke="#323232" stroke-width="2.0" stroke-dasharray="none" opacity="1.0" fill="#ffffff"/><g id="ProcessOnG1063" transform="matrix(1.0,0.0,0.0,1.0,10.0,9.375)"><text id="ProcessOnText1064" fill="#000000" font-size="13" x="24.0" y="13.325" font-family="微软雅黑" font-weight="normal" font-style="normal" text-decoration="none" family="微软雅黑" text-anchor="middle" size="13">pwd</text></g></g><g id="ProcessOnG1065" transform="matrix(1.0,0.0,0.0,1.0,853.0,276.25)" opacity="1.0"><path id="ProcessOnPath1066" d="M0.0 17.5C0.0 -5.833333333333333 70.0 -5.833333333333333 70.0 17.5C70.0 40.833333333333336 0.0 40.833333333333336 0.0 17.5Z" stroke="#323232" stroke-width="2.0" stroke-dasharray="none" opacity="1.0" fill="#ffffff"/><g id="ProcessOnG1067" transform="matrix(1.0,0.0,0.0,1.0,10.0,9.375)"><text id="ProcessOnText1068" fill="#000000" font-size="13" x="24.0" y="13.325" font-family="微软雅黑" font-weight="normal" font-style="normal" text-decoration="none" family="微软雅黑" text-anchor="middle" size="13">email</text></g></g><g id="ProcessOnG1069"><path id="ProcessOnPath1070" d="M786.0 264.75L819.5 264.75L819.5 184.75L837.7639320225002 184.75" stroke="#323232" stroke-width="2.0" stroke-dasharray="none" fill="none" marker-end="url(#ProcessOnMarker1071)"/></g><g id="ProcessOnG1073"><path id="ProcessOnPath1074" d="M786.0 264.75L819.5 264.75L819.5 237.75L837.7639320225002 237.75" stroke="#323232" stroke-width="2.0" stroke-dasharray="none" fill="none" marker-end="url(#ProcessOnMarker1075)"/></g><g id="ProcessOnG1077"><path id="ProcessOnPath1078" d="M786.0 264.75L819.5 264.75L819.5 293.75L837.7639320225002 293.75" stroke="#323232" stroke-width="2.0" stroke-dasharray="none" fill="none" marker-end="url(#ProcessOnMarker1079)"/></g><g id="ProcessOnG1081"><path id="ProcessOnPath1082" d="M786.0 264.75L819.5 264.75L819.5 351.25L837.7639320225002 351.25" stroke="#323232" stroke-width="2.0" stroke-dasharray="none" fill="none" marker-end="url(#ProcessOnMarker1083)"/></g><g id="ProcessOnG1085" transform="matrix(1.0,0.0,0.0,1.0,459.0,209.25)" opacity="1.0"><path id="ProcessOnPath1086" d="M0.0 26.25L57.0 0.0L114.0 26.25L57.0 52.5Z" stroke="#323232" stroke-width="2.0" stroke-dasharray="none" opacity="1.0" fill="#ffffff"/><g id="ProcessOnG1087" transform="matrix(1.0,0.0,0.0,1.0,10.0,18.3875)"><text id="ProcessOnText1088" fill="#000000" font-size="13" x="46.0" y="13.325" font-family="微软雅黑" font-weight="normal" font-style="normal" text-decoration="none" family="微软雅黑" text-anchor="middle" size="13">create</text></g></g><g id="ProcessOnG1089" transform="matrix(1.0,0.0,0.0,1.0,459.0,343.9375)" opacity="1.0"><path id="ProcessOnPath1090" d="M0.0 26.25L57.0 0.0L114.0 26.25L57.0 52.5Z" stroke="#323232" stroke-width="2.0" stroke-dasharray="none" opacity="1.0" fill="#ffffff"/><g id="ProcessOnG1091" transform="matrix(1.0,0.0,0.0,1.0,10.0,18.3875)"><text id="ProcessOnText1092" fill="#000000" font-size="13" x="46.0" y="13.325" font-family="微软雅黑" font-weight="normal" font-style="normal" text-decoration="none" family="微软雅黑" text-anchor="middle" size="13">delete</text></g></g><g id="ProcessOnG1093" transform="matrix(1.0,0.0,0.0,1.0,459.0,276.75)" opacity="1.0"><path id="ProcessOnPath1094" d="M0.0 26.25L57.0 0.0L114.0 26.25L57.0 52.5Z" stroke="#323232" stroke-width="2.0" stroke-dasharray="none" opacity="1.0" fill="#ffffff"/><g id="ProcessOnG1095" transform="matrix(1.0,0.0,0.0,1.0,10.0,18.3875)"><text id="ProcessOnText1096" fill="#000000" font-size="13" x="46.0" y="13.325" font-family="微软雅黑" font-weight="normal" font-style="normal" text-decoration="none" family="微软雅黑" text-anchor="middle" size="13">update</text></g></g><g id="ProcessOnG1097" transform="matrix(1.0,0.0,0.0,1.0,459.0,139.5625)" opacity="1.0"><path id="ProcessOnPath1098" d="M0.0 26.25L57.0 0.0L114.0 26.25L57.0 52.5Z" stroke="#323232" stroke-width="2.0" stroke-dasharray="none" opacity="1.0" fill="#ffffff"/><g id="ProcessOnG1099" transform="matrix(1.0,0.0,0.0,1.0,10.0,18.3875)"><text id="ProcessOnText1100" fill="#000000" font-size="13" x="46.0" y="13.325" font-family="微软雅黑" font-weight="normal" font-style="normal" text-decoration="none" family="微软雅黑" text-anchor="middle" size="13">apply</text></g></g><g id="ProcessOnG1101"><path id="ProcessOnPath1102" d="M708.0 264.75L640.5 264.75L640.5 303.0L573.0 303.0" stroke="#323232" stroke-width="2.0" stroke-dasharray="none" fill="none"/></g><g id="ProcessOnG1103"><path id="ProcessOnPath1104" d="M325.0 268.0L392.0 268.0L392.0 303.0L459.0 303.0" stroke="#323232" stroke-width="2.0" stroke-dasharray="none" fill="none"/></g><g id="ProcessOnG1105"><path id="ProcessOnPath1106" d="M325.0 268.0L392.0 268.0L392.0 235.5L459.0 235.5" stroke="#323232" stroke-width="2.0" stroke-dasharray="none" fill="none"/></g><g id="ProcessOnG1107"><path id="ProcessOnPath1108" d="M708.0 264.75L640.5 264.75L640.5 235.5L573.0 235.5" stroke="#323232" stroke-width="2.0" stroke-dasharray="none" fill="none"/></g><g id="ProcessOnG1109"><path id="ProcessOnPath1110" d="M708.0 264.75L640.5 264.75L640.5 165.8125L573.0 165.8125" stroke="#323232" stroke-width="2.0" stroke-dasharray="none" fill="none"/></g><g id="ProcessOnG1111"><path id="ProcessOnPath1112" d="M325.0 268.0L392.0 268.0L392.0 165.8125L459.0 165.8125" stroke="#323232" stroke-width="2.0" stroke-dasharray="none" fill="none"/></g><g id="ProcessOnG1113"><path id="ProcessOnPath1114" d="M708.0 264.75L640.5 264.75L640.5 370.1875L573.0 370.1875" stroke="#323232" stroke-width="2.0" stroke-dasharray="none" fill="none"/></g><g id="ProcessOnG1115"><path id="ProcessOnPath1116" d="M325.0 268.0L392.0 268.0L392.0 370.1875L459.0 370.1875" stroke="#323232" stroke-width="2.0" stroke-dasharray="none" fill="none"/></g><g id="ProcessOnG1117" transform="matrix(1.0,0.0,0.0,1.0,67.0,351.0)" opacity="1.0"><path id="ProcessOnPath1118" d="M0.0 17.5C0.0 -5.833333333333333 70.0 -5.833333333333333 70.0 17.5C70.0 40.833333333333336 0.0 40.833333333333336 0.0 17.5Z" stroke="#323232" stroke-width="2.0" stroke-dasharray="none" opacity="1.0" fill="#ffffff"/><g id="ProcessOnG1119" transform="matrix(1.0,0.0,0.0,1.0,10.0,9.375)"><text id="ProcessOnText1120" fill="#000000" font-size="13" x="24.0" y="13.325" font-family="微软雅黑" font-weight="normal" font-style="normal" text-decoration="none" family="微软雅黑" text-anchor="middle" size="13">applied</text></g></g><g id="ProcessOnG1121"><path id="ProcessOnPath1122" d="M236.0 268.0L186.5 268.0L186.5 368.5L152.2360679774998 368.5" stroke="#323232" stroke-width="2.0" stroke-dasharray="none" fill="none" marker-end="url(#ProcessOnMarker1123)"/></g><g id="ProcessOnG1125" transform="matrix(1.0,0.0,0.0,1.0,373.5,422.0)" opacity="1.0"><path id="ProcessOnPath1126" d="M0.0 17.5C0.0 -5.833333333333333 81.0 -5.833333333333333 81.0 17.5C81.0 40.833333333333336 0.0 40.833333333333336 0.0 17.5Z" stroke="#323232" stroke-width="2.0" stroke-dasharray="none" opacity="1.0" fill="#ffffff"/><g id="ProcessOnG1127" transform="matrix(1.0,0.0,0.0,1.0,10.0,9.375)"><text id="ProcessOnText1128" fill="#cc0066" font-size="13" x="29.5" y="13.325" font-family="微软雅黑" font-weight="normal" font-style="normal" text-decoration="underline" family="微软雅黑" text-anchor="middle" size="13">delete-id</text></g></g><g id="ProcessOnG1129" transform="matrix(1.0,0.0,0.0,1.0,379.0,466.0)" opacity="1.0"><path id="ProcessOnPath1130" d="M0.0 17.5C0.0 -5.833333333333333 70.0 -5.833333333333333 70.0 17.5C70.0 40.833333333333336 0.0 40.833333333333336 0.0 17.5Z" stroke="#323232" stroke-width="2.0" stroke-dasharray="none" opacity="1.0" fill="#ffffff"/><g id="ProcessOnG1131" transform="matrix(1.0,0.0,0.0,1.0,10.0,9.375)"><text id="ProcessOnText1132" fill="#000000" font-size="13" x="24.0" y="13.325" font-family="微软雅黑" font-weight="normal" font-style="normal" text-decoration="none" family="微软雅黑" text-anchor="middle" size="13">cell-id</text></g></g><g id="ProcessOnG1133" transform="matrix(1.0,0.0,0.0,1.0,67.0,400.0)" opacity="1.0"><path id="ProcessOnPath1134" d="M0.0 17.5C0.0 -5.833333333333333 70.0 -5.833333333333333 70.0 17.5C70.0 40.833333333333336 0.0 40.833333333333336 0.0 17.5Z" stroke="#323232" stroke-width="2.0" stroke-dasharray="none" opacity="1.0" fill="#ffffff"/><g id="ProcessOnG1135" transform="matrix(1.0,0.0,0.0,1.0,10.0,9.375)"><text id="ProcessOnText1136" fill="#000000" font-size="13" x="24.0" y="13.325" font-family="微软雅黑" font-weight="normal" font-style="normal" text-decoration="none" family="微软雅黑" text-anchor="middle" size="13">deleted</text></g></g><g id="ProcessOnG1137"><path id="ProcessOnPath1138" d="M236.0 268.0L186.5 268.0L186.5 417.5L152.2360679774998 417.5" stroke="#323232" stroke-width="2.0" stroke-dasharray="none" fill="none" marker-end="url(#ProcessOnMarker1139)"/></g><g id="ProcessOnG1141" transform="matrix(1.0,0.0,0.0,1.0,702.0,508.0)" opacity="1.0"><path id="ProcessOnPath1142" d="M0.0 0.0L90.0 0.0L90.0 49.0L0.0 49.0Z" stroke="#323232" stroke-width="2.0" stroke-dasharray="none" opacity="1.0" fill="#ffffff"/><g id="ProcessOnG1143" transform="matrix(1.0,0.0,0.0,1.0,10.0,16.375)"><text id="ProcessOnText1144" fill="#000000" font-size="13" x="34.0" y="13.325" font-family="微软雅黑" font-weight="normal" font-style="normal" text-decoration="none" family="微软雅黑" text-anchor="middle" size="13">string-list</text></g></g><g id="ProcessOnG1145" transform="matrix(1.0,0.0,0.0,1.0,690.0,362.0)" opacity="1.0"><path id="ProcessOnPath1146" d="M0.0 41.5L57.0 0.0L114.0 41.5L57.0 83.0Z" stroke="#323232" stroke-width="2.0" stroke-dasharray="none" opacity="1.0" fill="#ffffff"/><g id="ProcessOnG1147" transform="matrix(1.0,0.0,0.0,1.0,10.0,17.54)"><text id="ProcessOnText1148" fill="#000000" font-size="13" x="46.0" y="13.325" font-family="微软雅黑" font-weight="normal" font-style="normal" text-decoration="none" family="微软雅黑" text-anchor="middle" size="13">create</text><text id="ProcessOnText1149" fill="#000000" font-size="13" x="46.0" y="29.575" font-family="微软雅黑" font-weight="normal" font-style="normal" text-decoration="none" family="微软雅黑" text-anchor="middle" size="13">update</text><text id="ProcessOnText1150" fill="#000000" font-size="13" x="46.0" y="45.825" font-family="微软雅黑" font-weight="normal" font-style="normal" text-decoration="none" family="微软雅黑" text-anchor="middle" size="13">delete</text></g></g><g id="ProcessOnG1151"><path id="ProcessOnPath1152" d="M516.0 396.4375L516.0 439.5L469.7360679774998 439.5" stroke="#323232" stroke-width="2.0" stroke-dasharray="none" fill="none" marker-end="url(#ProcessOnMarker1153)"/></g><g id="ProcessOnG1155"><path id="ProcessOnPath1156" d="M516.0 396.4375L516.0 483.5L464.2360679774998 483.5" stroke="#323232" stroke-width="2.0" stroke-dasharray="none" fill="none" marker-end="url(#ProcessOnMarker1157)"/></g><g id="ProcessOnG1159"><path id="ProcessOnPath1160" d="M747.0 290.25L747.0 326.125L747.0 326.125L747.0 362.0" stroke="#323232" stroke-width="2.0" stroke-dasharray="none" fill="none"/></g><g id="ProcessOnG1161"><path id="ProcessOnPath1162" d="M747.0 445.0L747.0 476.5L747.0 476.5L747.0 508.0" stroke="#323232" stroke-width="2.0" stroke-dasharray="none" fill="none"/></g><g id="ProcessOnG1163"><path id="ProcessOnPath1164" d="M792.0 532.5L844.5 532.5L844.5 454.25L881.7639320225002 454.25" stroke="#323232" stroke-width="2.0" stroke-dasharray="none" fill="none" marker-end="url(#ProcessOnMarker1165)"/></g><g id="ProcessOnG1167" transform="matrix(1.0,0.0,0.0,1.0,897.0,435.25)" opacity="1.0"><path id="ProcessOnPath1168" d="M0.0 19.0C0.0 -6.333333333333333 76.0 -6.333333333333333 76.0 19.0C76.0 44.333333333333336 0.0 44.333333333333336 0.0 19.0Z" stroke="#323232" stroke-width="2.0" stroke-dasharray="none" opacity="1.0" fill="#ffffff"/><g id="ProcessOnG1169" transform="matrix(1.0,0.0,0.0,1.0,10.0,10.875)"><text id="ProcessOnText1170" fill="#cc0066" font-size="13" x="27.0" y="13.325" font-family="微软雅黑" font-weight="normal" font-style="normal" text-decoration="underline" family="微软雅黑" text-anchor="middle" size="13">list-id</text></g></g><g id="ProcessOnG1171" transform="matrix(1.0,0.0,0.0,1.0,900.0,485.75)" opacity="1.0"><path id="ProcessOnPath1172" d="M0.0 17.5C0.0 -5.833333333333333 70.0 -5.833333333333333 70.0 17.5C70.0 40.833333333333336 0.0 40.833333333333336 0.0 17.5Z" stroke="#323232" stroke-width="2.0" stroke-dasharray="none" opacity="1.0" fill="#ffffff"/><g id="ProcessOnG1173" transform="matrix(1.0,0.0,0.0,1.0,10.0,9.375)"><text id="ProcessOnText1174" fill="#000000" font-size="13" x="24.0" y="13.325" font-family="微软雅黑" font-weight="normal" font-style="normal" text-decoration="none" family="微软雅黑" text-anchor="middle" size="13">user-id</text></g></g><g id="ProcessOnG1175" transform="matrix(1.0,0.0,0.0,1.0,897.0,541.75)" opacity="1.0"><path id="ProcessOnPath1176" d="M0.0 17.5C0.0 -5.833333333333333 86.0 -5.833333333333333 86.0 17.5C86.0 40.833333333333336 0.0 40.833333333333336 0.0 17.5Z" stroke="#323232" stroke-width="2.0" stroke-dasharray="none" opacity="1.0" fill="#ffffff"/><g id="ProcessOnG1177" transform="matrix(1.0,0.0,0.0,1.0,10.0,9.375)"><text id="ProcessOnText1178" fill="#000000" font-size="13" x="32.0" y="13.325" font-family="微软雅黑" font-weight="normal" font-style="normal" text-decoration="none" family="微软雅黑" text-anchor="middle" size="13">cell-id-list</text></g></g><g id="ProcessOnG1179"><path id="ProcessOnPath1180" d="M792.0 532.5L846.0 532.5L846.0 503.25L884.7639320225002 503.25" stroke="#323232" stroke-width="2.0" stroke-dasharray="none" fill="none" marker-end="url(#ProcessOnMarker1181)"/></g><g id="ProcessOnG1183"><path id="ProcessOnPath1184" d="M792.0 532.5L844.5 532.5L844.5 559.25L881.7639320225002 559.25" stroke="#323232" stroke-width="2.0" stroke-dasharray="none" fill="none" marker-end="url(#ProcessOnMarker1185)"/></g><g id="ProcessOnG1187" transform="matrix(1.0,0.0,0.0,1.0,897.0,594.75)" opacity="1.0"><path id="ProcessOnPath1188" d="M0.0 17.5C0.0 -5.833333333333333 70.0 -5.833333333333333 70.0 17.5C70.0 40.833333333333336 0.0 40.833333333333336 0.0 17.5Z" stroke="#323232" stroke-width="2.0" stroke-dasharray="none" opacity="1.0" fill="#ffffff"/><g id="ProcessOnG1189" transform="matrix(1.0,0.0,0.0,1.0,10.0,9.375)"><text id="ProcessOnText1190" fill="#000000" font-size="13" x="24.0" y="13.325" font-family="微软雅黑" font-weight="normal" font-style="normal" text-decoration="none" family="微软雅黑" text-anchor="middle" size="13">deleted</text></g></g><g id="ProcessOnG1191"><path id="ProcessOnPath1192" d="M792.0 532.5L844.5 532.5L844.5 612.25L881.7639320225002 612.25" stroke="#323232" stroke-width="2.0" stroke-dasharray="none" fill="none" marker-end="url(#ProcessOnMarker1193)"/></g></g></g></svg>